<svg xmlns="http://www.w3.org/2000/svg" xmlns:xlink="http://www.w3.org/1999/xlink" version="1.1" x="0px" y="0px" viewBox="0 0 100 100" enable-background="new 0 0 100 100" xml:space="preserve" height="100px" width="100px">
<g id="&#1057;&#1083;&#1086;&#1081;_2" display="none">
</g>
<g id="&#1057;&#1083;&#1086;&#1081;_1">
	<path d="M51.3,29.1V24c0-6.1,3.4-11.6,8.9-14.4L57.9,5c-7.2,3.6-11.7,10.9-11.7,19v7.1l1.2,1.2C48.7,31.5,50,30.3,51.3,29.1z"/>
	<path d="M68.1,34.1c0.7,0.4,1.4,0.8,2,1.4c4.4-2.2,8.1-5.6,8.4-9.3c-5.1,2.8-9.3,4.2-12.1,4.9L68.1,34.1   C68.1,34.1,68.1,34.1,68.1,34.1z"/>
	<path d="M28.8,33.3V33c-0.4-1.2-0.7-2.4-0.9-3.6l-8.2-2.7C21.7,28.9,24.9,31.8,28.8,33.3z"/>
	<path d="M43.6,95c2.5,0,4.7-1.3,6-3.2c-0.5-1-0.8-2.2-0.8-3.4c-2.2-0.8-4-2.3-5.1-4.3c-1.5,2.6-4.1,4.4-7.1,4.8   C37.1,92.4,40.1,95,43.6,95z"/>
	<path d="M58.5,95c3.6,0,6.5-2.6,7.1-6c-2.4-0.3-4.5-1.6-6-3.3c-1.8,2.1-4.5,3.4-7.4,3.4c-0.2,0-0.5,0-0.7,0C52,92.4,55,95,58.5,95z   "/>
	<path d="M74.2,79.3c0-0.3,0-0.6-0.1-0.9c-0.3,0-0.5,0-0.8,0c-3.6,0-6.8-2-8.5-4.9c-0.8,1.4-1.9,2.6-3.3,3.4   c0.2,0.8,0.3,1.5,0.3,2.4c0,1.4-0.3,2.8-0.9,4c1.3,1.9,3.5,3.2,6,3.2C71,86.5,74.2,83.3,74.2,79.3z"/>
	<path d="M59.3,79.3c0-0.4,0-0.8-0.1-1.3c-0.9,0.3-1.9,0.4-2.8,0.4c-3.6,0-6.8-2-8.5-4.9c-0.6,1-1.3,1.9-2.3,2.7   c-0.4,0.9-0.7,2-0.7,3.1c0,4,3.2,7.2,7.2,7.2C56.1,86.5,59.3,83.3,59.3,79.3z"/>
	<path d="M35.1,86.5c4,0,7.2-3.2,7.2-7.2c0-0.4,0-0.8-0.1-1.3c-0.9,0.3-1.9,0.4-2.8,0.4c-2.4,0-4.7-0.9-6.4-2.4   c-1.4,1.2-3.1,2-5,2.3c0,0.3-0.1,0.6-0.1,0.9C27.9,83.3,31.2,86.5,35.1,86.5z"/>
	<path d="M20.4,65.1c-0.6,1-0.9,2.3-0.9,3.5c0,4,3.2,7.2,7.2,7.2c1.8,0,3.4-0.6,4.7-1.7c-1.1-1.6-1.7-3.5-1.7-5.5   c0-1.2,0.2-2.3,0.6-3.4c-1.3-0.1-2.5-0.4-3.6-0.9c-1.3,0.6-2.7,1-4.2,1C21.7,65.3,21,65.3,20.4,65.1z"/>
	<path d="M38.1,62.1c-1.3,1.4-3,2.5-5,3c-0.6,1.1-1,2.3-1,3.6c0,4,3.2,7.2,7.2,7.2c4,0,7.2-3.2,7.2-7.2c0-1.2-0.3-2.4-0.8-3.4   c-0.1,0-0.3,0-0.4,0C42.5,65.3,39.9,64.1,38.1,62.1z"/>
	<path d="M80.6,68.7c0-1.5-0.5-2.9-1.3-4.1c-1.2,0.5-2.4,0.8-3.8,0.8c-2.5,0-4.7-0.9-6.4-2.4c-1.8,1.3-2.9,3.4-2.9,5.8   c0,4,3.2,7.2,7.2,7.2C77.3,75.9,80.6,72.7,80.6,68.7z"/>
	<path d="M53.5,62c-2.6,1.1-4.4,3.7-4.4,6.6c0,4,3.2,7.2,7.2,7.2c4,0,7.2-3.2,7.2-7.2c0-1.3-0.3-2.5-0.9-3.5   c-0.6,0.1-1.2,0.2-1.8,0.2C57.9,65.3,55.3,64.1,53.5,62z"/>
	<path d="M22.4,62.8c0.6,0,1.1-0.1,1.7-0.2c-1.8-1.8-3-4.3-3-7c0-1,0.2-2.1,0.5-3c-1.7-0.1-3.3-0.7-4.7-1.7   c-1.1,1.3-1.7,2.9-1.7,4.7C15.2,59.5,18.4,62.8,22.4,62.8z"/>
	<path d="M23.7,55.6c0,4,3.2,7.2,7.2,7.2c2.3,0,4.4-1.1,5.7-2.9c-0.7-1.3-1-2.8-1-4.3c0-1.3,0.3-2.6,0.8-3.8   c-1.2,0.5-2.5,0.8-3.9,0.8c-1.8,0-3.6-0.5-5-1.4c-0.9,0.6-1.9,1-3,1.2C24,53.3,23.7,54.4,23.7,55.6z"/>
	<path d="M82.7,55.6c0-1.4-0.4-2.7-1.1-3.8c-1.2,0.5-2.6,0.9-4,0.9c-2.6,0-4.9-1-6.7-2.6c-0.5,0.4-0.9,0.9-1.3,1.4   c0.6,1.3,1,2.7,1,4.2s-0.4,2.9-1,4.2c1.3,1.8,3.4,3,5.8,3C79.5,62.8,82.7,59.5,82.7,55.6z"/>
	<path d="M54.5,52.1c0.4,1.1,0.6,2.2,0.6,3.4s-0.2,2.4-0.6,3.4c1.2,2.2,3.6,3.8,6.3,3.8c4,0,7.2-3.2,7.2-7.2c0-1.3-0.4-2.5-1-3.6   c-1.1,0.4-2.2,0.6-3.4,0.6c-2.7,0-5.2-1.1-7-2.9C55.8,50.3,55,51.1,54.5,52.1z"/>
	<path d="M38.2,55.6c0,4,3.2,7.2,7.2,7.2c4,0,7.2-3.2,7.2-7.2c0-1.3-0.4-2.6-1-3.7c-1.1,0.4-2.3,0.7-3.6,0.7c-2.7,0-5.1-1.1-6.9-2.8   C39.3,51.1,38.2,53.2,38.2,55.6z"/>
	<path d="M22.4,50c1,0,2-0.2,2.9-0.6c-1.6-1.7-2.6-4.1-2.6-6.6s1-4.9,2.6-6.6c-0.9-0.4-1.9-0.6-2.9-0.6c-4,0-7.2,3.2-7.2,7.2   C15.2,46.8,18.4,50,22.4,50z"/>
	<path d="M37.7,37.9c-2.5-0.2-5-0.9-7.3-2c-3,0.9-5.2,3.6-5.2,6.9c0,4,3.2,7.2,7.2,7.2c2.7,0,5.1-1.5,6.3-3.8   c-0.4-1.1-0.6-2.2-0.6-3.4s0.2-2.4,0.6-3.4C38.5,38.8,38.2,38.4,37.7,37.9z"/>
	<path d="M72.2,38.1c0.8,1.4,1.2,3,1.2,4.7s-0.5,3.3-1.2,4.7c1.3,1.5,3.3,2.5,5.4,2.5c4,0,7.2-3.2,7.2-7.2c0-4-3.2-7.2-7.2-7.2   C75.5,35.6,73.5,36.6,72.2,38.1z"/>
	<path d="M63.7,50c4,0,7.2-3.2,7.2-7.2c0-2.9-1.8-5.5-4.3-6.6c-2.7,1-5.4,1.5-8.2,1.7c-0.5,0.5-0.8,1.1-1.1,1.7   c0.3,1,0.5,2.1,0.5,3.2c0,1.1-0.2,2.2-0.5,3.2C58.4,48.4,60.8,50,63.7,50z"/>
	<path d="M47,36.5c-1.3,0.5-2.7,0.9-4.1,1.2c-1.3,1.3-2.2,3.1-2.2,5.1c0,4,3.2,7.2,7.2,7.2c4,0,7.2-3.2,7.2-7.2c0-1.9-0.8-3.7-2-5   C51.1,37.6,49,37.2,47,36.5z"/>
	<path d="M49.1,34.3c0,0.1,0,0.1,0,0.2c5.2,1.4,10.8,1.3,16-0.5l-6.4-11.1C56.8,27.1,53,31.6,49.1,34.3z"/>
	<path d="M45.6,34.3L31.3,19.9c-1.7,4.4-1.5,9.5,0.5,13.8C36.1,35.7,41.2,35.9,45.6,34.3z"/>
</g>
</svg>